<svg width="24" height="24" viewBox="0 0 24 24" fill="none" xmlns="http://www.w3.org/2000/svg">
<mask id="path-1-inside-1_11_3049" fill="white">
<path d="M0 12C0 5.37258 5.37258 0 12 0C18.6274 0 24 5.37258 24 12C24 18.6274 18.6274 24 12 24C5.37258 24 0 18.6274 0 12Z"/>
</mask>
<path d="M0 12C0 5.37258 5.37258 0 12 0C18.6274 0 24 5.37258 24 12C24 18.6274 18.6274 24 12 24C5.37258 24 0 18.6274 0 12Z" fill="#3B82F6"/>
<path d="M0 12M24 12M24 12M0 12M12 0M24 12M12 24M0 12M12 24V22C6.47715 22 2 17.5228 2 12H0H-2C-2 19.732 4.26801 26 12 26V24ZM24 12H22C22 17.5228 17.5228 22 12 22V24V26C19.732 26 26 19.732 26 12H24ZM12 0V2C17.5228 2 22 6.47715 22 12H24H26C26 4.26801 19.732 -2 12 -2V0ZM12 0V-2C4.26801 -2 -2 4.26801 -2 12H0H2C2 6.47715 6.47715 2 12 2V0Z" fill="#3B82F6" mask="url(#path-1-inside-1_11_3049)"/>
<g clip-path="url(#clip0_11_3049)">
<path d="M6 12L10 16L18 8" stroke="white" stroke-width="2" stroke-linecap="round" stroke-linejoin="round"/>
</g>
<defs>
<clipPath id="clip0_11_3049">
<rect width="14" height="10" fill="white" transform="translate(5 7)"/>
</clipPath>
</defs>
</svg>
